HIERARCHY
ROOT Hips
{
	OFFSET 0.000000 0.000000 0.000000
	CHANNELS 6 Xposition Yposition Zposition Xrotation Yrotation Zrotation
	JOINT LeftUpLeg_virtual
	{
		OFFSET 0.000000 0.000000 0.000000
		CHANNELS 3 Xrotation Yrotation Zrotation
		JOINT LeftUpLeg
		{
			OFFSET 10.205400 -3.823500 0.155100
			CHANNELS 3 Xrotation Yrotation Zrotation
			JOINT LeftLeg
			{
				OFFSET 0.708757 -12.982077 0.567790
				CHANNELS 3 Xrotation Yrotation Zrotation
				JOINT LeftFoot
				{
					OFFSET -0.708756 -10.717838 -2.184338
					CHANNELS 3 Xrotation Yrotation Zrotation
					JOINT LeftToeBase
					{
						OFFSET 0.108149 -7.191104 7.560241
						CHANNELS 3 Xrotation Yrotation Zrotation
						JOINT LeftToe_End
						{
							OFFSET 0.070230 0.081724 4.490308
							CHANNELS 3 Xrotation Yrotation Zrotation
							End Site
							{
								OFFSET 0 0 0
							}
						}
					}
				}
			}
		}
	}
	JOINT RightUpLeg_virtual
	{
		OFFSET 0.000000 0.000000 0.000000
		CHANNELS 3 Xrotation Yrotation Zrotation
		JOINT RightUpLeg
		{
			OFFSET -10.205400 -3.823500 0.005500
			CHANNELS 3 Xrotation Yrotation Zrotation
			JOINT RightLeg
			{
				OFFSET -0.708756 -12.982134 0.610632
				CHANNELS 3 Xrotation Yrotation Zrotation
				JOINT RightFoot
				{
					OFFSET 0.708754 -10.717769 -1.945823
					CHANNELS 3 Xrotation Yrotation Zrotation
					JOINT RightToeBase
					{
						OFFSET -0.108140 -7.191069 7.372968
						CHANNELS 3 Xrotation Yrotation Zrotation
						JOINT RightToe_End
						{
							OFFSET -0.070227 0.081735 4.479403
							CHANNELS 3 Xrotation Yrotation Zrotation
							End Site
							{
								OFFSET 0 0 0
							}
						}
					}
				}
			}
		}
	}
	JOINT Spine_virtual
	{
		OFFSET 0.000000 0.000000 0.000000
		CHANNELS 3 Xrotation Yrotation Zrotation
		JOINT Spine
		{
			OFFSET 0.000000 6.876099 0.125700
			CHANNELS 3 Xrotation Yrotation Zrotation
			JOINT Spine1
			{
				OFFSET 0.000000 5.730043 0.104720
				CHANNELS 3 Xrotation Yrotation Zrotation
				JOINT Spine1_split
				{
					OFFSET 0.000000 5.730043 0.104720
					CHANNELS 3 Xrotation Yrotation Zrotation
					JOINT Spine2
					{
						OFFSET 0.000000 5.730043 0.104720
						CHANNELS 3 Xrotation Yrotation Zrotation
						JOINT Neck_virtual
						{
							OFFSET 0.000000 0.000000 0.000000
							CHANNELS 3 Xrotation Yrotation Zrotation
							JOINT Neck
							{
								OFFSET 0.000000 10.314075 0.188496
								CHANNELS 3 Xrotation Yrotation Zrotation
								JOINT Head
								{
									OFFSET 0.000000 7.643700 -2.377400
									CHANNELS 3 Xrotation Yrotation Zrotation
									JOINT HeadTop_End
									{
										OFFSET 0.000000 43.788605 -13.619600
										CHANNELS 3 Xrotation Yrotation Zrotation
										End Site
										{
											OFFSET 0 0 0
										}
									}
								}
							}
						}
						JOINT LeftShoulder_virtual
						{
							OFFSET 0.000000 0.000000 0.000000
							CHANNELS 3 Xrotation Yrotation Zrotation
							JOINT LeftShoulder
							{
								OFFSET 2.196100 4.412489 0.087492
								CHANNELS 3 Xrotation Yrotation Zrotation
								JOINT LeftShoulder_split
								{
									OFFSET 2.196100 4.412489 0.087492
									CHANNELS 3 Xrotation Yrotation Zrotation
									JOINT LeftArm
									{
										OFFSET 8.771219 -2.981674 -0.026999
										CHANNELS 3 Xrotation Yrotation Zrotation
										JOINT LeftForeArm
										{
											OFFSET 8.512804 0.000000 -0.000000
											CHANNELS 3 Xrotation Yrotation Zrotation
											JOINT LeftHand
											{
												OFFSET 18.484802 0.000000 -0.000000
												CHANNELS 3 Xrotation Yrotation Zrotation
												End Site
												{
													OFFSET 0 0 0
												}
											}
										}
									}
								}
							}
						}
						JOINT RightShoulder_virtual
						{
							OFFSET 0.000000 0.000000 0.000000
							CHANNELS 3 Xrotation Yrotation Zrotation
							JOINT RightShoulder
							{
								OFFSET -2.196100 4.412496 0.070690
								CHANNELS 3 Xrotation Yrotation Zrotation
								JOINT RightShoulder_split
								{
									OFFSET -2.196100 4.412496 0.070690
									CHANNELS 3 Xrotation Yrotation Zrotation
									JOINT RightArm
									{
										OFFSET -8.771282 -2.981682 -0.094208
										CHANNELS 3 Xrotation Yrotation Zrotation
										JOINT RightForeArm
										{
											OFFSET -8.494598 0.000000 0.000000
											CHANNELS 3 Xrotation Yrotation Zrotation
											JOINT RightHand
											{
												OFFSET -18.483803 0.000000 0.000001
												CHANNELS 3 Xrotation Yrotation Zrotation
												End Site
												{
													OFFSET 0 0 0
												}
											}
										}
									}
								}
							}
						}
					}
				}
			}
		}
	}
}
MOTION
Frames: 4
Frame Time: 0.03333333
3.960231 30.221043 -4.745155 0.000000 0.000000 0.000000 8.652381 12.581017 0.953678 -4.946788 10.066054 9.265176 54.595007 -3.409341 6.543735 -19.213530 -5.883032 -21.610387 -21.663154 1.328549 -1.404710 0.000000 0.000000 0.000000 9.299612 11.454315 0.335777 -28.350334 -6.720793 -8.667524 43.898200 4.331918 5.548317 -24.744881 1.350719 0.180586 -0.936466 1.614292 -1.091360 0.000000 0.000000 0.000000 8.287491 12.658420 0.900175 1.016677 -2.371037 -1.441780 2.513388 -1.632316 1.847164 -0.767165 0.741635 -0.071793 0.000000 0.000000 0.000000 2.710335 -2.613504 2.407340 -4.286514 3.020619 1.307294 -12.069778 4.377419 8.378435 0.000000 0.000000 0.000000 0.914221 -1.808399 2.583148 0.862857 1.996482 -0.668111 3.746891 -6.358607 7.177045 -43.226447 -7.757806 -37.520152 173.620895 -63.981469 173.782060 0.000000 0.000000 0.000000 1.248077 -3.016975 1.827422 -0.660284 -18.809612 6.741785 -0.494253 8.716878 -4.510540 -35.069514 9.512626 55.107506 -172.790057 62.466403 174.621409 0.000000 0.000000 0.000000 
4.062192 30.697937 -5.707506 0.000000 0.000000 0.000000 11.325833 14.130876 -0.890773 -19.413092 6.280334 15.531317 65.671265 -4.158699 5.309131 -1.030500 -9.434613 -17.545653 -18.463332 3.035827 -7.146295 0.000000 0.000000 0.000000 10.542146 11.852938 -0.929908 -27.712516 -8.068093 -7.097942 41.568603 4.233596 5.333331 -25.031566 1.126535 1.092901 -5.233970 1.234142 -1.993634 0.000000 0.000000 0.000000 10.378899 13.050927 -0.209950 4.949530 -1.817089 -0.606454 2.598174 -1.219006 0.868697 0.543102 0.783490 -0.259630 0.000000 0.000000 0.000000 2.705806 -2.234073 1.752907 -5.403064 2.542051 -0.749254 -15.946101 1.589371 9.706283 0.000000 0.000000 0.000000 1.123319 -1.428779 1.821616 1.012292 0.909356 10.664872 3.784196 -3.570559 2.849616 -59.318991 -6.605390 -35.928748 172.985291 -68.537274 172.527983 0.000000 0.000000 0.000000 1.450648 -2.377016 1.021378 -2.409221 -17.833740 -0.921239 0.281478 6.478506 -4.723309 -53.023752 4.036461 58.083669 -172.906976 65.719008 173.873803 0.000000 0.000000 0.000000 
4.051270 30.929893 -6.376707 0.000000 0.000000 0.000000 13.294834 13.955102 -1.898675 -34.096134 3.184884 21.023522 76.451011 -3.505014 2.459089 14.557872 -8.377056 -8.664381 -11.889854 4.146832 -13.753526 0.000000 0.000000 0.000000 11.850332 11.427859 -1.729606 -27.874408 -9.501334 -6.605755 40.913164 2.743808 5.482627 -25.663985 0.681268 -0.375282 -9.775821 0.188144 -1.778841 0.000000 0.000000 0.000000 12.386653 12.080083 -0.851925 8.167200 -1.170040 -0.492484 3.038983 -0.804075 0.073023 1.697417 0.872103 -0.315538 0.000000 0.000000 0.000000 3.229869 -1.786148 1.222843 -6.498785 2.114385 -2.487132 -19.922400 -0.645190 10.724346 0.000000 0.000000 0.000000 1.817193 -1.100243 1.144096 1.195858 0.380776 20.969080 3.720924 -0.320210 -0.309248 -71.867653 -6.096269 -31.897434 168.547581 -76.442316 167.865778 0.000000 0.000000 0.000000 2.242131 -1.714406 0.320455 -3.962939 -16.174243 -8.865988 1.022616 3.388523 -4.463862 -66.077825 -2.723913 57.430662 -174.066346 69.657930 173.447586 0.000000 0.000000 0.000000 
3.956668 31.051176 -6.854057 0.000000 0.000000 0.000000 14.426915 12.324410 -1.904318 -46.450498 1.733208 24.435692 84.262726 -2.750072 -0.876610 23.595725 -3.950762 0.102342 -6.641505 4.195847 -17.584645 0.000000 0.000000 0.000000 13.244585 9.743325 -1.882562 -29.310797 -10.881860 -7.468738 41.070016 0.497998 6.292037 -25.594257 0.360256 -3.359280 -12.674110 -1.218582 -0.632765 0.000000 0.000000 0.000000 13.925710 10.003038 -0.915753 9.991379 -0.616178 -1.031291 3.661044 -0.463432 -0.317638 1.722777 0.562927 0.200460 0.000000 0.000000 0.000000 4.073284 -1.321250 1.007071 -7.445137 1.773614 -3.314620 -23.022556 -2.050708 11.518011 0.000000 0.000000 0.000000 2.738629 -0.839988 0.841364 1.117050 0.667087 28.103261 3.415077 2.202353 -3.109852 -79.247120 -6.515457 -27.429527 152.994475 -83.826160 152.768259 0.000000 0.000000 0.000000 3.334195 -1.214991 -0.079422 -4.851181 -14.172872 -15.058723 1.440180 0.691288 -3.226737 -71.876963 -7.758134 54.872415 -176.543028 73.337155 174.008563 0.000000 0.000000 0.000000 
